<?xml version="1.0" standalone="no"?>
<!DOCTYPE svg PUBLIC "-//W3C//DTD SVG 20010904//EN"
 "http://www.w3.org/TR/2001/REC-SVG-20010904/DTD/svg10.dtd">
<svg version="1.0" xmlns="http://www.w3.org/2000/svg"
 width="256.000000pt" height="256.000000pt" viewBox="0 0 256.000000 256.000000"
 preserveAspectRatio="xMidYMid meet">
<metadata>
Created by potrace 1.14, written by Peter Selinger 2001-2017
</metadata>
<g transform="translate(0.000000,256.000000) scale(0.100000,-0.100000)"
fill="#000000" stroke="none">
<path d="M629 2464 c-81 -52 -89 -239 -16 -381 l27 -53 -35 -32 c-29 -26 -37
-42 -41 -80 -6 -52 12 -97 48 -122 24 -17 22 -19 -36 -81 -266 -281 -427 -644
-412 -932 10 -203 122 -358 315 -435 52 -21 75 -22 338 -26 277 -4 282 -3 295
17 9 15 23 21 50 21 l38 0 0 -71 c0 -92 20 -127 93 -162 71 -34 97 -39 207
-43 108 -3 190 13 262 50 26 14 50 21 53 16 10 -16 69 -41 130 -55 39 -10 94
-13 160 -10 147 6 237 39 276 101 18 30 19 54 19 455 0 394 -1 426 -18 454
-23 37 -87 72 -164 90 -74 17 -246 12 -312 -9 -74 -24 -135 -68 -136 -98 -1
-7 -10 9 -20 37 -17 43 -18 51 -6 64 13 12 12 20 -4 60 -57 144 -212 372 -341
502 -33 33 -35 37 -18 47 70 44 75 160 8 216 l-30 25 29 58 c57 113 66 253 21
332 -35 63 -91 76 -181 40 -55 -21 -89 -21 -143 2 -43 19 -124 20 -165 2 -55
-23 -94 -26 -136 -8 -59 25 -124 29 -155 9z"/>
</g>
</svg>
